PathFileType        4      (X/Y/Z)      C:\Users\pc\Desktop\IMUTRC\Sujet_03\Sujet_03_Tpose.trc         
DataRate	CameraRate	NumFrames	NumMarkers	Units	OrigDataRate	OrigDataStartFrame	OrigNumFrames
60.0	60.0	4	64	mm	60.0	93	123
Frame#	Time	pHipOrigin			pRightASI			pLeftASI			pRightCSI			pLeftCSI			pRightIschialTub			pLeftIschialTub			pSacrum			pL5SpinalProcess			pL3SpinalProcess			pT12SpinalProcess			pIJ			pT4SpinalProcess			pT8SpinalProcess			pPX			pC7SpinalProcess			pTopOfHead			pRightAuricularis			pLeftAuricularis			pBackOfHead			pRightAcromion			pLeftAcromion			pRightArmLatEpicondyle			pRightArmMedEpicondyle			pLeftArmLatEpicondyle			pLeftArmMedEpicondyle			pRightUlnarStyloid			pRightRadialStyloid			pRightOlecranon			pLeftUlnarStyloid			pLeftRadialStyloid			pLeftOlecranon			pRightTopOfHand			pRightPinky			pRightBallHand			pLeftTopOfHand			pLeftPinky			pLeftBallHand			pRightGreaterTrochanter			pRightKneeLatEpicondyle			pRightKneeMedEpicondyle			pRightPatella			pLeftGreaterTrochanter			pLeftKneeLatEpicondyle			pLeftKneeMedEpicondyle			pLeftPatella			pRightTibialTub			pRightLatMalleolus			pRightMedMalleolus			pLeftTibialTub			pLeftLatMalleolus			pLeftMedMalleolus			pRightHeelFoot			pRightFirstMetatarsal			pRightFifthMetatarsal			pRightPivotFoot			pRightHeelCenter			pRightToe			pLeftHeelFoot			pLeftFirstMetatarsal			pLeftFifthMetatarsal			pLeftPivotFoot			pLeftHeelCenter			pLeftToe			
		X1	Y1	Z1	X2	Y2	Z2	X3	Y3	Z3	X4	Y4	Z4	X5	Y5	Z5	X6	Y6	Z6	X7	Y7	Z7	X8	Y8	Z8	X9	Y9	Z9	X10	Y10	Z10	X11	Y11	Z11	X12	Y12	Z12	X13	Y13	Z13	X14	Y14	Z14	X15	Y15	Z15	X16	Y16	Z16	X17	Y17	Z17	X18	Y18	Z18	X19	Y19	Z19	X20	Y20	Z20	X21	Y21	Z21	X22	Y22	Z22	X23	Y23	Z23	X24	Y24	Z24	X25	Y25	Z25	X26	Y26	Z26	X27	Y27	Z27	X28	Y28	Z28	X29	Y29	Z29	X30	Y30	Z30	X31	Y31	Z31	X32	Y32	Z32	X33	Y33	Z33	X34	Y34	Z34	X35	Y35	Z35	X36	Y36	Z36	X37	Y37	Z37	X38	Y38	Z38	X39	Y39	Z39	X40	Y40	Z40	X41	Y41	Z41	X42	Y42	Z42	X43	Y43	Z43	X44	Y44	Z44	X45	Y45	Z45	X46	Y46	Z46	X47	Y47	Z47	X48	Y48	Z48	X49	Y49	Z49	X50	Y50	Z50	X51	Y51	Z51	X52	Y52	Z52	X53	Y53	Z53	X54	Y54	Z54	X55	Y55	Z55	X56	Y56	Z56	X57	Y57	Z57	X58	Y58	Z58	X59	Y59	Z59	X60	Y60	Z60	X61	Y61	Z61	X62	Y62	Z62	X63	Y63	Z63	X64	Y64	Z64	
93	1.533	-381.43187	984.90236	-767.1050499999999	-297.5799	1083.02578	-636.8851799999999	-321.48029	1082.50994	-910.3354399999998	-341.88446	1152.83555	-657.1747199999999	-361.65816	1152.37703	-882.8815099999999	-435.25073	929.70793	-705.4340199999999	-445.16624	929.47867	-818.2874199999999	-448.14662	1009.26127	-761.3162299999999	-408.59922	1100.73614	-765.0990199999999	-391.92053	1215.99677	-765.8441199999999	-387.79384	1322.25893	-765.2136499999999	-211.89386	1534.03815	-775.6449999999999	-371.74562	1523.14829	-763.5515099999999	-384.41225	1428.52109	-764.1246599999998	-223.81539	1404.16218	-776.7912999999999	-362.74715	1578.80123	-761.7747499999999	-271.44423	1832.87899	-766.4172699999999	-265.82735	1728.39359	-698.2123199999999	-297.29333	1734.58362	-838.9781599999999	-336.61147	1736.7616	-756.0432399999999	-334.77739	1557.25076	-550.5113599999999	-376.38814	1578.62929	-971.9491499999999	-265.99929	1487.0971	-307.9539299999999	-208.91347	1477.75474	-326.00817999999987	-402.63845	1493.05787	-1225.28181	-342.45761	1486.18006	-1226.60006	-135.89406	1438.95243	-84.42510999999992	-167.9905	1477.5828	-64.99529999999992	-225.76411	1464.17107	-332.1982099999999	-386.30365	1437.17567	-1477.92669	-429.23264	1469.55869	-1480.73513	-352.88896	1474.65973	-1217.94548	-112.05098	1443.59495	132.16858000000008	-92.90775	1423.93588	35.993870000000086	-119.10074	1451.44712	-37.48405999999991	-362.05937	1462.27967	-1685.17802	-341.94178	1438.72317	-1590.0923	-374.49674	1455.1726	-1515.81196	-359.76677	951.37304	-603.6424399999999	-397.70935	541.22631	-631.26831	-412.78322	541.68483	-709.78997	-361.77279	541.11168	-681.59095	-400.5751	950.5133100000002	-930.7969199999999	-434.96415	541.28363	-888.84228	-423.78771	542.25798	-809.63284	-384.64151	540.59585	-852.84841	-349.96589	500.53261000000003	-684.17013	-435.47999	89.81273000000004	-635.39499	-448.20394	90.09931000000005	-701.02076	-371.86025	501.73622000000006	-854.28129	-459.89621	89.01032000000005	-871.4185	-450.55385	89.69810000000004	-805.21958	-477.66389	0.05732000000004039	-659.52464	-320.21936	6.247340000000045	-730.70997	-304.62966	7.79485000000004	-650.52617	-289.89968	7.909480000000043	-696.14898	-438.23111	2.6364900000000406	-667.26218	-207.99643	11.291070000000044	-712.08257	-492.62312	-0.05731999999994908	-831.69915	-320.16204	4.814470000000051	-820.35076	-333.63109	4.527890000000055	-900.87845	-303.88456	5.3303000000000536	-863.33707	-452.96109	1.9487100000000512	-838.3477	-221.52279	7.5655900000000535	-877.15001	
94	1.55	-381.25992	984.90236	-767.1623599999999	-297.35064	1083.02578	-636.9424999999999	-321.30835	1082.45263	-910.3927499999999	-341.71252	1152.83555	-657.2320399999999	-361.48622	1152.31971	-882.9961399999999	-435.1361	929.65062	-705.4913399999999	-444.99429	929.42136	-818.3447299999999	-447.97468	1009.26127	-761.3735399999999	-408.42727	1100.73614	-765.1563399999999	-391.74858	1215.99677	-765.9014299999999	-387.6219	1322.20161	-765.2709699999999	-211.77923	1534.03815	-775.7023099999999	-371.63099	1523.14829	-763.6088299999999	-384.24031	1428.52109	-764.1819799999998	-223.64345	1404.16218	-776.8486099999999	-362.63252	1578.74392	-761.8320599999998	-271.3296	1832.87899	-766.4172699999999	-265.71272	1728.39359	-698.2696399999999	-297.1787	1734.58362	-839.0354799999999	-336.49684	1736.7616	-756.1005499999999	-334.66276	1557.19345	-550.5686699999999	-376.27351	1578.57197	-972.0064599999998	-265.77003	1487.0971	-308.0112499999999	-208.68421	1477.75474	-326.1228099999999	-402.4665	1493.1725	-1225.33912	-342.28567	1486.23737	-1226.65737	-135.60748	1439.00975	-84.53974999999991	-167.76124	1477.64011	-65.10992999999992	-225.53485	1464.11375	-332.3128399999999	-386.1317	1437.2903	-1477.984	-429.0607	1469.67332	-1480.79244	-352.71701	1474.71704	-1218.00279	-111.76441	1443.70958	132.05395000000007	-92.62117	1423.9932	35.87924000000009	-118.81416	1451.50444	-37.598689999999905	-361.88742	1462.50893	-1685.29265	-341.76983	1438.95243	-1590.14962	-374.3248	1455.34455	-1515.86927	-359.59482	951.31572	-603.6997499999999	-397.65203	541.22631	-631.26831	-412.7259	541.68483	-709.84728	-361.71548	541.11168	-681.59095	-400.46047	950.5133100000002	-930.8542399999999	-434.90684	541.28363	-888.84228	-423.67308	542.25798	-809.69015	-384.5842	540.59585	-852.84841	-349.90857	500.53261000000003	-684.17013	-435.47999	89.81273000000004	-635.39499	-448.20394	90.09931000000005	-701.02076	-371.80293	501.73622000000006	-854.28129	-459.89621	89.01032000000005	-871.4185	-450.55385	89.69810000000004	-805.21958	-477.66389	0.05732000000004039	-659.52464	-320.21936	6.247340000000045	-730.70997	-304.62966	7.79485000000004	-650.52617	-289.89968	7.909480000000043	-696.14898	-438.23111	2.6364900000000406	-667.26218	-207.99643	11.233760000000045	-712.08257	-492.62312	-0.05731999999994908	-831.69915	-320.16204	4.814470000000051	-820.35076	-333.63109	4.527890000000055	-900.87845	-303.88456	5.272990000000053	-863.33707	-452.96109	1.9487100000000512	-838.3477	-221.52279	7.508280000000053	-877.15001	
95	1.567	-381.08798	984.84504	-767.2769899999998	-297.1787	1083.02578	-637.0571299999999	-321.1364	1082.45263	-910.4500699999999	-341.54057	1152.77823	-657.3466699999999	-361.31427	1152.31971	-883.0534599999999	-434.96415	929.65062	-705.5486499999998	-444.82235	929.42136	-818.4020499999999	-447.80273	1009.26127	-761.4308599999999	-408.25532	1100.73614	-765.2136499999999	-391.57664	1215.93945	-765.9587499999999	-387.44995	1322.20161	-765.3282799999998	-211.6646	1534.09547	-775.8169399999999	-371.51636	1523.09097	-763.7234599999999	-384.12568	1428.46377	-764.2392899999999	-223.52882	1404.16218	-776.9632399999999	-362.46057	1578.74392	-761.9466899999999	-271.21496	1832.87899	-766.4745799999998	-265.59809	1728.39359	-698.3269499999999	-297.00675	1734.58362	-839.0927899999999	-336.38221	1736.7616	-756.2151799999999	-334.49081	1557.19345	-550.6259899999999	-376.15888	1578.57197	-972.0637799999998	-265.59809	1487.03979	-308.1258799999999	-208.51227	1477.75474	-326.1801299999999	-402.35187	1493.1725	-1225.39644	-342.11372	1486.29469	-1226.71469	-135.43554	1439.06706	-84.59705999999991	-167.53198	1477.64011	-65.16724999999991	-225.3629	1464.11375	-332.3701599999999	-385.95976	1437.40493	-1478.09863	-428.88875	1469.78795	-1480.84976	-352.54507	1474.71704	-1218.11742	-111.53515	1443.7669	131.9966300000001	-92.39191	1424.05051	35.82193000000009	-118.64222	1451.56175	-37.71331999999991	-361.60085	1462.73819	-1685.34997	-341.54057	1439.12438	-1590.26425	-374.09554	1455.45918	-1515.92659	-359.42288	951.31572	-603.7570699999999	-397.59472	541.22631	-631.32562	-412.61127	541.68483	-709.9046	-361.60085	541.05437	-681.64826	-400.28853	950.4559900000002	-930.9688699999999	-434.79221	541.28363	-888.8996	-423.61577	542.20067	-809.69015	-384.52688	540.53853	-852.90573	-349.85126	500.53261000000003	-684.22744	-435.47999	89.81273000000004	-635.39499	-448.20394	90.09931000000005	-701.02076	-371.6883	501.73622000000006	-854.3386	-459.89621	89.01032000000005	-871.4185	-450.55385	89.69810000000004	-805.21958	-477.66389	0.05732000000004039	-659.52464	-320.21936	6.247340000000045	-730.70997	-304.62966	7.79485000000004	-650.52617	-289.89968	7.909480000000043	-696.14898	-438.23111	2.6364900000000406	-667.26218	-207.99643	11.233760000000045	-712.08257	-492.62312	-0.05731999999994908	-831.69915	-320.16204	4.814470000000051	-820.35076	-333.63109	4.527890000000055	-900.87845	-303.88456	5.272990000000053	-863.33707	-452.96109	1.9487100000000512	-838.3477	-221.52279	7.5655900000000535	-877.15001	
96	1.583	-380.91603	984.84504	-767.3343099999998	-297.00675	1082.96846	-637.1144399999998	-320.96446	1082.45263	-910.5646999999999	-341.31131	1152.77823	-657.4039799999999	-361.08501	1152.31971	-883.1107699999999	-434.73489	929.65062	-705.6632799999999	-444.6504	929.42136	-818.5166799999998	-447.63079	1009.26127	-761.5454899999999	-408.02606	1100.67882	-765.3282799999998	-391.40469	1215.93945	-766.0160599999999	-387.278	1322.20161	-765.3855999999998	-211.49265	1534.09547	-775.9315699999999	-371.34441	1523.09097	-763.7807699999998	-383.95373	1428.46377	-764.2966099999999	-223.35687	1404.16218	-777.0778699999998	-362.34594	1578.74392	-762.0040099999999	-271.10033	1832.87899	-766.5318999999998	-265.48346	1728.39359	-698.3842699999999	-296.89212	1734.58362	-839.1501099999999	-336.26758	1736.70428	-756.2724999999999	-334.31887	1557.13613	-550.6832999999999	-376.04425	1578.57197	-972.1210899999999	-265.42614	1487.03979	-308.1831899999999	-208.34032	1477.75474	-326.2374399999999	-402.17993	1493.11518	-1225.45375	-341.99909	1486.29469	-1226.82932	-135.20628	1439.06706	-84.65437999999992	-167.36004	1477.64011	-65.28187999999992	-225.19095	1464.11375	-332.4274699999999	-385.7305	1437.51956	-1478.15595	-428.65949	1469.84526	-1480.96439	-352.37312	1474.71704	-1218.17474	-111.30589	1443.82421	131.8820000000001	-92.21997	1424.10783	35.70730000000008	-118.41296	1451.56175	-37.77063999999991	-361.31427	1462.91014	-1685.40728	-341.25399	1439.29632	-1590.32156	-373.86628	1455.57381	-1516.04122	-359.25093	951.31572	-603.8143799999999	-397.5374	541.22631	-631.38294	-412.55396	541.62752	-709.9046	-361.54353	541.05437	-681.70558	-400.11658	950.4559900000002	-931.0261799999998	-434.73489	541.28363	-888.95691	-423.55845	542.20067	-809.74747	-384.41225	540.53853	-852.96304	-349.79394	500.47529000000003	-684.28476	-435.47999	89.81273000000004	-635.39499	-448.20394	90.09931000000005	-701.02076	-371.63099	501.67891000000003	-854.3386	-459.89621	89.01032000000005	-871.4185	-450.55385	89.69810000000004	-805.16226	-477.66389	0.05732000000004039	-659.52464	-320.21936	6.247340000000045	-730.70997	-304.62966	7.79485000000004	-650.52617	-289.89968	7.909480000000043	-696.14898	-438.23111	2.6364900000000406	-667.26218	-207.99643	11.233760000000045	-712.08257	-492.62312	-0.05731999999994908	-831.69915	-320.16204	4.814470000000051	-820.35076	-333.63109	4.527890000000055	-900.87845	-303.88456	5.3303000000000536	-863.33707	-452.96109	1.9487100000000512	-838.3477	-221.52279	7.5655900000000535	-877.15001	
